<?xml version="1.0" encoding="UTF-8"?><svg id="_レイヤー_2" xmlns="http://www.w3.org/2000/svg" viewBox="0 0 443.84 64.07"><g id="_レイヤー_2-2"><path d="M49.83,43.52c-4.24-.21-2.28,3.65-5.72,2.54-5.98-1.96-10.64-4.4-14.24-7.52-5.08,3.71-11.38,6.41-18.85,8.15-1.85.42-2.65-1.11-.74-1.75,6.67-2.33,12.23-5.35,16.63-9.27-4.34-4.92-6.78-11.23-8.1-19.11-2.01,12.87-7.31,21.55-16.73,29.02-1.38,1.06-2.86-.11-1.59-1.32C9.8,35.42,14.25,21.76,14.25,3.81H5.35c-2.49.05-2.96-.16-3.39-1.43-.37-1.01,0-1.59,1.48-1.48,8.63.58,24.67.69,27.64.53,1.22-.05,1.8-1.43,3.44-1.43,1.75,0,4.45,1.96,4.45,2.7,0,1.27-1.59,1.11-2.01,2.22-.26.79-2.54,6.19-3.81,9.58,2.01.16,4.13.16,4.77.16,1.06,0,1.8-1.48,3.28-1.48s4.98,1.59,4.98,2.75-1.91,1.16-2.33,2.54c-2.12,6.72-5.4,12.23-9.85,16.63,4.34,2.91,9.69,5.03,16.2,6.51,1.85.42,1.43,2.01-.37,1.91ZM19.49,10.01c1.75,9.74,5.19,16.94,10.85,22.19,3.6-4.18,6.25-9.16,7.94-15.09h-6.09c-.85,2.28-2.44,2.7-4.29,2.12-1.43-.42-1.48-.9-1.06-2.28.37-1.17,3.34-9.11,4.77-13.13h-11.07c-.53.11-.85.58-.85,1.43-.05,1.64-.11,3.23-.21,4.77Z"/><path d="M47.19,20.39c-.32-1.01-.26-1.43,1.22-1.32,2.54.16,7.2.32,12.5.37,0-1.8-.05-3.65-.05-4.98,0-.79.79-1.11,1.91-1.11,1.8,0,4.77,1.16,4.77,1.96,0,1.06-1.38.69-1.38,1.8,0,.53,0,1.43.05,2.38,3.87.05,7.84.05,11.28.05,0-1.8-.05-3.71-.05-5.08,0-.79.79-1.11,1.91-1.11,1.59,0,4.87,1.06,4.87,1.96,0,1.01-1.27.64-1.38,1.8-.05.53-.05,1.43,0,2.44,2.81-.05,4.82-.05,5.4-.11.9-.05,1.91-1.69,3.44-1.69,1.69,0,4.29,1.8,4.29,2.81,0,.58-.48,1.01-1.69,1.01-1.8,0-6.09,0-11.38.05.05.58.05,1.17.05,1.59,0,2.22-1.06,3.02-3.39,3.02-1.48,0-2.01-.48-2.01-1.64v-2.96c-3.71,0-7.62.05-11.28.05v1.75c0,2.22-.95,3.02-3.23,3.02-1.48,0-2.06-.48-2.06-1.64v-3.12c-5.4.05-9.58.05-10.96.05-2.01,0-2.49-.32-2.81-1.32ZM47.77,35.69c-1.17-.58-.9-1.38.53-1.32,2.59.21,4.92,1.01,6.14,2.12,2.44,2.12,2.06,4.61-.26,5.45-3.12,1.11-1.27-3.34-6.41-6.25ZM58.36,57.4c.79,3.92-.79,6.67-3.39,6.25-4.5-.79.79-9.85-6.88-13.71-1.16-.58-.58-1.91,1.11-1.38.85.26,1.54.42,2.17.53,1.43.21,2.33-.16,2.81-.95l8.21-14.19c.58-.95,1.91-.37,1.48.58l-6.78,15.99c-.42.95-.79,2.22-.48,2.81.9,1.59,1.48,2.75,1.75,4.08ZM59.58,28.54c2.06,2.59,1.32,4.92-1.32,5.4-2.91.64-.69-3.65-6.46-7.36-1.27-.85-.95-1.54.69-1.32,3.18.37,5.98,1.91,7.09,3.28ZM95.58,45.43c-3.12,0-.21,3.39-2.97,2.91-5.72-1.01-10.17-2.49-13.66-4.92-4.29,2.54-9.37,4.45-15.57,6.04-1.8.48-2.49-.69-.74-1.48,5.29-2.38,9.53-4.66,13.18-7.31-1.64-1.8-2.97-3.92-4.02-6.51-1.64,1.91-3.81,3.92-6.72,6.09-1.06.85-2.12.21-1.32-.9,3.07-4.29,5.93-9.32,8.15-14.19.26-.58,1.06-.79,2.06-.53,1.96.53,4.29,1.85,3.97,2.7-.26.64-1.48.26-1.8.79-.16.26-.32.53-.48.74,3.49.32,9.16.11,10.38.05.95-.05,1.43-1.32,2.7-1.32,1.64,0,4.24,1.54,4.24,2.44s-1.38.74-2.17,2.01c-2.33,3.6-5.03,6.57-8.31,9.05,3.55,1.54,7.78,2.38,13.13,2.86,1.8.16,1.75,1.48-.05,1.48ZM91.5,49.88c0,.85-1.16.9-1.16,1.59,0,2.17.11,7.68.16,9.64.05,2.22-.9,2.97-3.28,2.97-1.48,0-2.06-.48-2.06-1.64v-1.11c-3.87,0-7.73.05-11.65.05-.11,1.91-1.22,2.65-3.39,2.65-1.54,0-2.12-.53-2.06-1.64.05-2.28.11-10.7,0-13.5-.05-.69.69-1.11,1.96-1.06,1.06,0,2.22.37,3.23.85h11.07c.74,0,1.54-1.16,3.02-1.16,1.64,0,4.18,1.43,4.18,2.38ZM78.32,38.65c2.59-2.17,4.87-4.66,7.1-7.62-3.65.05-7.94.16-9.16.16-.69,0-1.32-.11-1.91-.32-.42.64-.9,1.27-1.38,1.91,1.59,2.44,3.39,4.39,5.35,5.88ZM85.15,59.15c0-2.65.05-6.09,0-8.31-3.6,0-7.2.05-10.8.05-.64.11-1.01.53-1.01,1.38,0,1.11.05,4.55.11,6.88,3.71.05,8.68.05,11.7,0Z"/><path d="M121.87,31.92c-1.49-.06-5.12-.06-6.67,0-.4.02-.51-.19-.27-.4.03-.02.05-.05.06-.08,1.2-4.83,5.55-5.74,5.63-8.43.05-1.82-1.2-2.73-2.35-2.73-1.46,0-2.35,1.18-2.33,2.67,0,.46-.13.96-.54,1.01-.54.06-.93-.45-.93-1.01,0-1.57,1.87-3.12,3.81-3.12,2.46,0,3.82,1.15,3.77,3.18-.1,3.47-4.7,3.95-6.2,7.82,1.2.05,3.84.03,5.13.02.35-.02.61-.34.67-.83.03-.24.48-.32.46.06-.02.64.11,1.36.16,1.57.05.18-.11.27-.4.27Z"/><path d="M125.76,26.65c-.3-3.55,1.3-6.36,3.87-6.8,2.56-.43,4.67,1.82,4.97,5.37.3,3.55-1.31,6.38-3.87,6.8s-4.67-1.84-4.97-5.37ZM133.16,25.26c-.3-3.15-1.76-5.18-3.49-4.8-1.71.38-2.8,3.01-2.51,6.16.3,3.15,1.76,5.15,3.5,4.78,1.71-.37,2.8-2.99,2.49-6.14Z"/><path d="M145.44,31.92c-1.49-.06-5.12-.06-6.67,0-.4.02-.51-.19-.27-.4.03-.02.05-.05.06-.08,1.2-4.83,5.55-5.74,5.63-8.43.05-1.82-1.2-2.73-2.35-2.73-1.46,0-2.35,1.18-2.33,2.67,0,.46-.13.96-.54,1.01-.54.06-.93-.45-.93-1.01,0-1.57,1.87-3.12,3.81-3.12,2.46,0,3.82,1.15,3.77,3.18-.1,3.47-4.7,3.95-6.2,7.82,1.2.05,3.84.03,5.13.02.35-.02.61-.34.67-.83.03-.24.48-.32.46.06-.02.64.11,1.36.16,1.57.05.18-.11.27-.4.27Z"/><path d="M157.62,27.92c0,2.51-1.84,4.16-4.46,4.16-1.38,0-2.53-.61-3.47-1.84-.37-.48.4-.93.78-.3.53.86,1.68,1.39,2.62,1.39,1.66,0,3.07-1.52,3.07-3.52s-1.3-3.21-2.69-3.2c-.82,0-1.6.42-2.16,1.1-.18.24-.26.59-.78.54-.21-.02-.34-.11-.3-.29.08-.34.56-5.45.56-5.82,0-.24.3-.32.54-.21.18.1.3.18.37.29h.14c1.2.05,2.46.05,3.73.02.27,0,.56-.1.62-.61.05-.3.51-.3.5.05-.02.64.1,1.04.16,1.25.03.18-.13.29-.38.27-1.31-.06-3.25-.06-4.73-.02-.08.83-.24,2.56-.32,3.55.58-.46,1.34-.8,2.22-.8,2.22,0,3.98,1.58,3.98,3.98Z"/><path d="M160.61,30.91c0-.58.48-1.04,1.07-1.04s1.07.46,1.07,1.04-.5,1.06-1.07,1.06-1.07-.46-1.07-1.06Z"/><path d="M175.02,28.43c-.4-.02-1.23-.03-2.24-.03,0,1.06.02,1.92.03,2.3.02.58.1.64,1.23.75.51.05.48.54-.03.53-1.25-.05-2.99-.05-4.05-.02-.58.03-.61-.46-.05-.51,1.57-.11,1.62-.21,1.63-.74.02-.35.02-1.23.02-2.33-2.32-.02-5.04,0-5.93.03-.4,0-.5-.3-.26-.5.27-.22.61-.51.78-.74,1.38-1.7,4.17-5.42,5.48-7.2.13-.27.37-.4.77-.4.27,0,.4.13.38.43-.03,1.02-.05,4.86-.03,7.69.62,0,1.14-.02,1.41-.02.34,0,.53-.42.59-.9.03-.27.5-.3.48.1-.02.61.1,1.06.16,1.26.05.16-.13.27-.38.27ZM171.57,27.71c.02-2.11,0-4.75,0-6.16-1.31,1.69-3.84,4.97-4.77,6.14.99.02,3.05.02,4.77.02Z"/><path d="M177.5,30.91c0-.58.48-1.04,1.07-1.04s1.07.46,1.07,1.04-.5,1.06-1.07,1.06-1.07-.46-1.07-1.06Z"/><path d="M191.02,31.92c-1.49-.06-5.12-.06-6.67,0-.4.02-.51-.19-.27-.4.03-.02.05-.05.06-.08,1.2-4.83,5.55-5.74,5.63-8.43.05-1.82-1.2-2.73-2.35-2.73-1.46,0-2.35,1.18-2.33,2.67,0,.46-.13.96-.54,1.01-.54.06-.93-.45-.93-1.01,0-1.57,1.87-3.12,3.81-3.12,2.46,0,3.82,1.15,3.77,3.18-.1,3.47-4.7,3.95-6.2,7.82,1.2.05,3.84.03,5.13.02.35-.02.61-.34.67-.83.03-.24.48-.32.46.06-.02.64.11,1.36.16,1.57.05.18-.11.27-.4.27Z"/><path d="M195.08,26.43c0-3.74,2.7-6.57,5.71-6.57.75,0,1.63.21,2.27.48.42.18.21.78-.37.53-.56-.27-1.15-.42-1.74-.42-2.46,0-4.59,2.83-4.59,6.04,0,2.94,1.44,4.88,3.18,4.89,1.49,0,2.85-1.73,2.85-3.73s-1.22-3.49-2.64-3.49c-.9,0-1.92.69-2.38,1.65-.24.43-.83.34-.53-.29.56-1.18,1.71-2.05,3.39-2.05,1.77,0,3.49,1.28,3.49,4.25-.02,2.38-1.74,4.33-4.11,4.33-2.57,0-4.53-1.52-4.53-5.65Z"/><path d="M218.59,31.92c-1.49-.06-5.12-.06-6.67,0-.4.02-.51-.19-.27-.4.03-.02.05-.05.06-.08,1.2-4.83,5.55-5.74,5.63-8.43.05-1.82-1.2-2.73-2.35-2.73-1.46,0-2.35,1.18-2.33,2.67,0,.46-.13.96-.54,1.01-.54.06-.93-.45-.93-1.01,0-1.57,1.87-3.12,3.81-3.12,2.46,0,3.82,1.15,3.77,3.18-.1,3.47-4.7,3.95-6.2,7.82,1.2.05,3.84.03,5.13.02.35-.02.61-.34.67-.83.03-.24.48-.32.46.06-.02.64.11,1.36.16,1.57.05.18-.11.27-.4.27Z"/><path d="M230.38,31.92c-1.49-.06-5.12-.06-6.67,0-.4.02-.51-.19-.27-.4.03-.02.05-.05.06-.08,1.2-4.83,5.55-5.74,5.63-8.43.05-1.82-1.2-2.73-2.35-2.73-1.45,0-2.35,1.18-2.33,2.67,0,.46-.13.96-.54,1.01-.54.06-.93-.45-.93-1.01,0-1.57,1.87-3.12,3.81-3.12,2.46,0,3.82,1.15,3.77,3.18-.1,3.47-4.7,3.95-6.2,7.82,1.2.05,3.84.03,5.13.02.35-.02.61-.34.67-.83.03-.24.48-.32.46.06-.02.64.11,1.36.16,1.57.05.18-.11.27-.4.27Z"/><path d="M235.05,30.91c0-.58.48-1.04,1.09-1.04.58,0,1.06.46,1.06,1.04s-.48,1.06-1.06,1.06c-.61,0-1.09-.46-1.09-1.06ZM235.13,24.24c0-.58.48-1.04,1.07-1.04s1.07.46,1.07,1.04-.5,1.06-1.07,1.06-1.07-.46-1.07-1.06Z"/><path d="M241.31,26.65c-.3-3.55,1.3-6.36,3.87-6.8,2.56-.43,4.67,1.82,4.97,5.37.3,3.55-1.31,6.38-3.87,6.8s-4.67-1.84-4.97-5.37ZM248.71,25.26c-.3-3.15-1.76-5.18-3.49-4.8-1.71.38-2.8,3.01-2.51,6.16.3,3.15,1.76,5.15,3.5,4.78,1.71-.37,2.8-2.99,2.49-6.14Z"/><path d="M253.1,26.65c-.3-3.55,1.3-6.36,3.87-6.8,2.56-.43,4.67,1.82,4.97,5.37.3,3.55-1.31,6.38-3.87,6.8s-4.67-1.84-4.97-5.37ZM260.5,25.26c-.3-3.15-1.76-5.18-3.49-4.8-1.71.38-2.8,3.01-2.51,6.16.3,3.15,1.76,5.15,3.5,4.78,1.71-.37,2.8-2.99,2.49-6.14Z"/><path d="M271.41,26.46c-3.34-1.42-4.73-.51-5.31-.1-.21.16-.42.18-.51.05-.1-.11-.05-.29.1-.43.45-.46,2.09-2.35,5.95-.75,2.96,1.22,4.54.75,5.25.26.26-.18.42-.19.53-.08.13.13.08.26-.11.48-1.63,1.84-3.63,1.52-5.88.58Z"/><path d="M288.78,31.92c-1.49-.06-5.12-.06-6.67,0-.4.02-.51-.19-.27-.4.03-.02.05-.05.06-.08,1.2-4.83,5.55-5.74,5.63-8.43.05-1.82-1.2-2.73-2.35-2.73-1.46,0-2.35,1.18-2.33,2.67,0,.46-.13.96-.54,1.01-.54.06-.93-.45-.93-1.01,0-1.57,1.87-3.12,3.81-3.12,2.46,0,3.82,1.15,3.77,3.18-.1,3.47-4.7,3.95-6.21,7.82,1.2.05,3.84.03,5.13.02.35-.02.61-.34.67-.83.03-.24.48-.32.46.06-.02.64.11,1.36.16,1.57.05.18-.11.27-.4.27Z"/><path d="M292.67,26.65c-.3-3.55,1.3-6.36,3.87-6.8,2.56-.43,4.67,1.82,4.97,5.37.3,3.55-1.31,6.38-3.87,6.8s-4.67-1.84-4.97-5.37ZM300.08,25.26c-.3-3.15-1.76-5.18-3.49-4.8-1.71.38-2.8,3.01-2.51,6.16.3,3.15,1.76,5.15,3.5,4.78,1.71-.37,2.8-2.99,2.49-6.14Z"/><path d="M312.36,31.92c-1.49-.06-5.12-.06-6.67,0-.4.02-.51-.19-.27-.4.03-.02.05-.05.06-.08,1.2-4.83,5.55-5.74,5.63-8.43.05-1.82-1.2-2.73-2.35-2.73-1.46,0-2.35,1.18-2.33,2.67,0,.46-.13.96-.54,1.01-.54.06-.93-.45-.93-1.01,0-1.57,1.87-3.12,3.81-3.12,2.46,0,3.82,1.15,3.77,3.18-.1,3.47-4.7,3.95-6.21,7.82,1.2.05,3.84.03,5.13.02.35-.02.61-.34.67-.83.03-.24.48-.32.46.06-.02.64.11,1.36.16,1.57.05.18-.11.27-.4.27Z"/><path d="M324.53,27.92c0,2.51-1.84,4.16-4.46,4.16-1.38,0-2.53-.61-3.47-1.84-.37-.48.4-.93.78-.3.53.86,1.68,1.39,2.62,1.39,1.66,0,3.07-1.52,3.07-3.52s-1.3-3.21-2.69-3.2c-.82,0-1.6.42-2.16,1.1-.18.24-.26.59-.78.54-.21-.02-.34-.11-.3-.29.08-.34.56-5.45.56-5.82,0-.24.3-.32.54-.21.18.1.3.18.37.29h.14c1.2.05,2.46.05,3.73.02.27,0,.56-.1.62-.61.05-.3.51-.3.5.05-.02.64.1,1.04.16,1.25.03.18-.13.29-.38.27-1.31-.06-3.25-.06-4.73-.02-.08.83-.24,2.56-.32,3.55.58-.46,1.34-.8,2.22-.8,2.22,0,3.98,1.58,3.98,3.98Z"/><path d="M327.53,30.91c0-.58.48-1.04,1.07-1.04s1.07.46,1.07,1.04-.5,1.06-1.07,1.06-1.07-.46-1.07-1.06Z"/><path d="M341.94,28.43c-.4-.02-1.23-.03-2.24-.03,0,1.06.02,1.92.03,2.3.02.58.1.64,1.23.75.51.05.48.54-.03.53-1.25-.05-2.99-.05-4.05-.02-.58.03-.61-.46-.05-.51,1.57-.11,1.62-.21,1.63-.74.02-.35.02-1.23.02-2.33-2.32-.02-5.04,0-5.93.03-.4,0-.5-.3-.26-.5.27-.22.61-.51.78-.74,1.38-1.7,4.17-5.42,5.49-7.2.13-.27.37-.4.77-.4.27,0,.4.13.38.43-.03,1.02-.05,4.86-.03,7.69.62,0,1.14-.02,1.41-.02.34,0,.53-.42.59-.9.03-.27.5-.3.48.1-.02.61.1,1.06.16,1.26.05.16-.13.27-.38.27ZM338.48,27.71c.02-2.11,0-4.75,0-6.16-1.31,1.69-3.84,4.97-4.77,6.14.99.02,3.05.02,4.77.02Z"/><path d="M344.42,30.91c0-.58.48-1.04,1.07-1.04s1.07.46,1.07,1.04-.5,1.06-1.07,1.06-1.07-.46-1.07-1.06Z"/><path d="M357.93,31.92c-1.49-.06-5.12-.06-6.67,0-.4.02-.51-.19-.27-.4.03-.02.05-.05.06-.08,1.2-4.83,5.55-5.74,5.63-8.43.05-1.82-1.2-2.73-2.35-2.73-1.46,0-2.35,1.18-2.33,2.67,0,.46-.13.96-.54,1.01-.54.06-.93-.45-.93-1.01,0-1.57,1.87-3.12,3.81-3.12,2.46,0,3.82,1.15,3.77,3.18-.1,3.47-4.7,3.95-6.21,7.82,1.2.05,3.84.03,5.13.02.35-.02.61-.34.67-.83.03-.24.48-.32.46.06-.02.64.11,1.36.16,1.57.05.18-.11.27-.4.27Z"/><path d="M370.33,21.11c-1.41,1.66-2.65,4.38-3.63,8.14-.35,1.31-.27,2.99-1.22,2.99-.86,0-.85-1.07.19-4.27.78-2.35,2.08-4.7,3.82-6.73-1.39-.03-4.81-.02-6.01,0-.24.14-.48.78-.54,1.31-.05.29-.46.29-.46-.05.02-.64-.08-1.84-.14-2.03-.05-.18.1-.27.38-.26,1.46.05,5.88.02,7.4-.03.35-.02.53.08.53.3s-.08.48-.32.62Z"/><path d="M385.51,31.92c-1.49-.06-5.12-.06-6.67,0-.4.02-.51-.19-.27-.4.03-.02.05-.05.06-.08,1.2-4.83,5.55-5.74,5.63-8.43.05-1.82-1.2-2.73-2.35-2.73-1.46,0-2.35,1.18-2.33,2.67,0,.46-.13.96-.54,1.01-.54.06-.93-.45-.93-1.01,0-1.57,1.87-3.12,3.81-3.12,2.46,0,3.82,1.15,3.77,3.18-.1,3.47-4.7,3.95-6.21,7.82,1.2.05,3.84.03,5.13.02.35-.02.61-.34.67-.83.03-.24.48-.32.46.06-.02.64.11,1.36.16,1.57.05.18-.11.27-.4.27Z"/><path d="M391.89,31.34c1.36-.11,1.55-.21,1.57-.75.03-1.26-.03-7.6-.03-9.21,0-.27-.11-.43-.54-.43-.32,0-.75,0-1.25.03-.5.03-.58-.5-.05-.54.77-.08,1.85-.3,2.85-.54.4-.1.51.13.45.43-.05.27-.1.82-.1,1.17-.02,2.19-.03,7.05,0,9.08.02.58.1.64,1.42.77.53.05.51.58-.02.54-1.26-.06-3.2,0-4.25,0-.58,0-.61-.48-.05-.54Z"/><path d="M401.97,30.91c0-.58.48-1.04,1.09-1.04.58,0,1.06.46,1.06,1.04s-.48,1.06-1.06,1.06c-.61,0-1.09-.46-1.09-1.06ZM402.05,24.24c0-.58.48-1.04,1.07-1.04s1.07.46,1.07,1.04-.5,1.06-1.07,1.06-1.07-.46-1.07-1.06Z"/><path d="M416.51,27.92c0,2.51-1.84,4.16-4.46,4.16-1.38,0-2.53-.61-3.47-1.84-.37-.48.4-.93.78-.3.53.86,1.68,1.39,2.62,1.39,1.66,0,3.07-1.52,3.07-3.52s-1.3-3.21-2.69-3.2c-.82,0-1.6.42-2.16,1.1-.18.24-.26.59-.78.54-.21-.02-.34-.11-.3-.29.08-.34.56-5.45.56-5.82,0-.24.3-.32.54-.21.18.1.3.18.37.29h.14c1.2.05,2.46.05,3.73.02.27,0,.56-.1.62-.61.05-.3.51-.3.5.05-.02.64.1,1.04.16,1.25.03.18-.13.29-.38.27-1.31-.06-3.25-.06-4.73-.02-.08.83-.24,2.56-.32,3.55.58-.46,1.34-.8,2.22-.8,2.22,0,3.98,1.58,3.98,3.98Z"/><path d="M420.02,26.65c-.3-3.55,1.3-6.36,3.87-6.8,2.56-.43,4.67,1.82,4.97,5.37.3,3.55-1.31,6.38-3.87,6.8s-4.67-1.84-4.97-5.37ZM427.42,25.26c-.3-3.15-1.76-5.18-3.49-4.8-1.71.38-2.8,3.01-2.51,6.16.3,3.15,1.76,5.15,3.5,4.78,1.71-.37,2.8-2.99,2.49-6.14Z"/><path d="M135.93,45.94c0,.24-.17.41-.65.41h-4.05c-.24.05-.53.14-.62.53-.74,3.26-1.8,6.07-3.48,8.35,1.37.6,2.57,1.25,3.57,1.9,2.33,1.51,3.67,3.45,2.69,4.2-.98.7-2.35-2.13-7.24-4.92-2.42,2.61-5.97,4.41-11.39,5.3-.58.1-.77-.43-.17-.6,4.53-1.25,7.65-3,9.88-5.56-1.56-.74-3.38-1.46-5.59-2.06-.07.14-.14.29-.19.41-.58,1.25-1.15,1.22-1.7.98-.48-.22-.65-.38-.41-.89.79-1.65,2.09-4.65,3.31-7.58-2.45.02-4.44.02-5.23.02-.7,0-1.2-.1-1.39-.6-.14-.38-.02-.7.46-.62.98.12,3.57.19,6.57.24.84-2.09,1.61-4.03,2.09-5.33.12-.34.41-.46.7-.36,1.1.31,1.99,1.03,1.82,1.44-.14.43-.79.17-.94.55l-1.58,3.69c4.8.05,9.79,0,10.22,0,.5,0,.91-.79,1.51-.79.72,0,1.82.84,1.82,1.3ZM128.69,46.37c-2.16,0-4.53.02-6.72.02-.98,2.28-2.09,4.82-2.81,6.45,2.13.38,4.22.96,6.14,1.65,1.54-2.13,2.59-4.8,3.38-8.13Z"/><path d="M147.62,54.02c-1.92,1.06-6.19,2.93-8.47,3.74-.43.14-.14.7-.6.86-.5.19-1.3-1.06-1.56-1.82-.07-.22.1-.38.43-.46,1.1-.24,2.54-.62,4.03-1.06-.05-.07-.07-.17-.07-.29.05-1.06.02-8.35,0-10.72-1.25.02-2.33.02-2.83.02-.72,0-1.18-.05-1.39-.6-.12-.38-.02-.62.46-.55,2.18.36,6.12.22,7.05.22.46,0,.72-.65,1.27-.65.62,0,1.58.67,1.58,1.08,0,.26-.24.46-.72.46-.53,0-1.8,0-3.19.02-.19.05-.48.24-.48.62-.02.84-.02,8.52.02,9.28.02.24-.02.46-.12.65,1.54-.48,3.05-.96,4.25-1.37.5-.19.79.29.34.55ZM159.83,60.78c-1.3-.12-.82,1.3-1.82.89-2.52-1.03-4.46-2.42-5.9-4.2-1.85,1.87-4.22,3.38-7.22,4.49-.43.17-.77-.24-.34-.5,2.76-1.61,4.94-3.33,6.6-5.33-1.42-2.25-2.18-5.04-2.37-8.3-.02-.43.6-.48.67-.07.46,2.66,1.2,5.09,2.64,7.15,1.87-2.66,2.95-5.8,3.48-9.79-2.25.05-4.68.07-5.18.05-.22,0-.41-.05-.58-.12-.94,2.25-2.11,4.27-3.81,6.14-.24.26-.62.02-.48-.26,1.77-3.21,3.26-7.56,4.01-10.84.05-.22.19-.36.46-.34.84.05,2.06.62,1.99,1.06-.1.41-.77.26-.89.62-.29.96-.6,1.87-.94,2.76,1.94.12,6.52.07,7.03.07s.77-.65,1.37-.65c.65,0,1.61.67,1.61,1.1,0,.24-.24.38-.7.38h-1.37c-.34.07-.65.31-.72.74-.65,4.15-1.94,7.63-4.17,10.41,1.56,1.68,3.74,3.02,6.79,3.96.43.14.29.6-.14.58Z"/><path d="M182.07,52.44c-.43,4.68-4.49,7.17-10.75,7.68-.55.05-.72-.43-.14-.55,5.35-1.22,8.68-3.6,9-7.22.34-3.65-1.49-6.4-4.92-6.96-.84,2.09-2.28,4.99-3.74,7.41.24.19.5.38.79.58,1.18.77.5,2.16-.38,1.58-.43-.29-.84-.6-1.2-.91-.86,1.34-1.73,2.42-2.42,2.93-1.15.82-2.83.72-3.41-.29-.41-.67-1.49-1.37-1.49-2.49,0-2.69,1.3-5.25,3.31-7.08-.5-1.63-.96-3.09-2.01-4.08-.34-.34.05-.58.46-.41,1.46.6,2.14,1.94,2.73,3.55,1.7-1.18,3.77-1.9,5.97-1.94v-.02c.22-.6.36-.86.36-1.34,0-.82-.38-1.56-1.08-1.87-.48-.17-.36-.5.14-.5,1.92,0,2.76,1.2,2.71,2.21,0,.5-.17,1.03-.36,1.65,4.44.62,6.84,3.89,6.43,8.08ZM169.69,53.04c-1.32-1.49-2.01-3.09-2.54-4.61-1.39,1.54-2.28,3.55-2.28,5.66,0,2.4.89,2.9,2.3,1.9.77-.58,1.66-1.61,2.52-2.95ZM168.3,47.35c.5,1.46,1.08,3.07,2.18,4.41,1.15-1.94,2.23-4.27,3.02-6.45-1.92.1-3.74.86-5.21,2.04Z"/><path d="M199.76,49.8c.14,5.23-1.27,9.35-4.2,10.03-.94.22-1.37-.41-1.42-1.34-.02-.53-.98-1.92-1.25-2.28-.22-.26.19-.55.43-.29.55.6,1.51,1.46,1.92,1.73.26.19.43.31.72.14,1.39-.84,2.45-4.13,2.33-7.87-.1-3.57-2.37-2.73-5.21-1.54-1.22,4.01-2.73,7.89-4.56,10.65-.82,1.25-2.09.07-1.18-1.37.31-.53.77-1.03,1.15-1.66,1.27-2.37,2.28-4.97,2.95-6.96-1.37.5-2.83.91-3.45.79-1.08-.17-1.94-.84-1.99-1.94,0-.46.38-.53.7-.26.48.48,1.08.6,1.73.62.5.05,2.35-.22,3.5-.65l.38-1.32c.55-1.87.65-2.49.31-3-.31-.43-.6-.67-1.37-.72-.38-.02-.48-.29-.19-.5,1.15-.84,2.71-.12,3.48.62.86.86-.34,1.8-.86,3.67l-.17.6c3.48-1.22,6.14-.91,6.24,2.83ZM206.02,51.55c-.14.94-1.15,1.61-1.68.34-.22-.55-.98-.65-2.06-.65-.48,0-.65-.43-.14-.55.36-.1,1.2-.19,1.49-.26.38-.12.7-.19.67-.55-.12-1.63-1.58-4.22-3.93-5.08-.48-.17-.22-.67.34-.55,3.96.89,5.71,4.51,5.32,7.32ZM205.61,43.2c.65.67.62,1.73.02,1.9-.94.22-.29-1.25-3.09-2.54-.36-.17-.26-.5.22-.46,1.03.1,2.33.53,2.85,1.1ZM207.43,43.06c-.98.31-.43-1.3-3.26-2.54-.38-.14-.26-.46.22-.43,1.1.07,2.37.46,3,1.06.7.7.6,1.75.05,1.92Z"/><path d="M231.62,59.37c-.22,1.37-.82,1.92-2.66,2.18-1.01.14-3,.17-4.36.02-1.82-.19-2.49-1.01-2.49-2.71,0-1.01-.02-3.41-.02-4.92-1.3.02-2.66.02-3.89.02.72.1,1.63.55,1.58.91-.07.41-.6.26-.77.62-1.32,3.12-4.08,5.47-9.55,6.6-.5.1-.72-.38-.19-.58,4.49-1.49,7.08-3.86,8.2-7.22.05-.17.1-.29.26-.34h-2.97v.24c0,1.22-.48,1.39-1.2,1.39-.5,0-.7-.19-.7-.7,0-1.37.07-10.72-.02-14.01,0-.34.22-.53.58-.5.6.05,1.2.34,1.65.62,2.4.05,9.98.05,10.51.02.48-.02.74-.65,1.32-.65.65,0,1.63.67,1.63,1.1s-.58.38-.58.84c0,1.32.07,11.01.07,11.8,0,1.2-.46,1.32-1.2,1.32-.5,0-.67-.19-.67-.7v-.82h-1.85c-.26.1-.38.38-.41.7-.07.96-.1,3.07-.05,4.05.05,1.08.22,1.25.93,1.37.94.14,3.05.14,3.84-.02.55-.14.89-.24.89-1.1v-1.94c0-.36.58-.38.67-.02.38,2.3,1.58,1.39,1.44,2.4ZM215.21,41.93c-.26.05-.5.29-.5.6v2.69c2.33.05,9.02,0,11.44,0v-3.31c-3,0-9.26,0-10.94.02ZM214.73,49.03c2.33.05,9,.02,11.42,0v-2.97c-2.64,0-9.98.02-11.27.02h-.14v2.95ZM226.15,53.11v-3.21c-2.64,0-9.98.02-11.27.02h-.14c0,1.22.02,2.38.02,3.17,2.37.05,8.97.02,11.39.02Z"/><path d="M241.05,46.99c-.98,4.22-2.28,8.76-3.45,12.21-.67,1.87-2.3.24-1.34-1.85,1.01-2.16,2.33-5.64,3.38-10.05-2.23.41-3.79,0-4.8-1.25-.34-.38.02-.77.48-.46,1.06.74,2.88.7,4.65.26.07-.24.12-.5.17-.74.43-1.99-.26-3.24-1.1-3.41-.43-.07-.5-.41-.05-.62,1.08-.46,2.13.1,2.52.62.43.53.38,1.37.14,2.54-.07.38-.17.79-.26,1.2.46-.14.89-.34,1.3-.5.14-.07.24-.12.24-.17-.05-.12.12-.29.43-.31.29-.05.67-.14.98-.22,1.15-.14,1.85.82.46,1.42-1.39.58-2.64,1.03-3.74,1.32ZM252.74,59.54c-.82.1-2.09.07-2.95.05-5.71-.24-7.27-4.13-4.63-7.15.29-.34.74-.07.53.29-1.37,2.11-.89,4.94,4.05,5.18.62.02,2.18.02,2.61-.05,1.56-.29,2.64,1.44.38,1.68ZM252.71,48.72c-.34-.22-2.16.6-2.95,1.01-.48.22-.84-.1-.46-.41.58-.46,1.58-1.13,2.01-1.44.36-.24.31-.46.02-.62-.94-.53-2.57-.84-4.2-.84-.62,0-.67-.5-.07-.62,3.98-.82,6.79.72,7.29,2.45.31,1.08-.46,1.25-1.66.48Z"/><path d="M259.82,51.09c0-2.45,1.08-5.92.07-7.44-.24-.31-.02-.53.38-.48,1.22.22,1.99,1.08,1.97,2.18-.02,1.34-1.06,3.91-1.06,5.78,0,2.85,1.68,4.89,2.85,5.44.43.22.72,0,.96-.6.36-.96,1.49-3.91,2.13-5.52.12-.29.6-.17.53.17-.53,2.06-1.44,5.13-1.42,6.14.02.74.86.91.86,1.61,0,.48-.65.82-1.27.67-3.33-.86-6.02-3.36-6.02-7.96ZM276.15,53.01c-.02-2.83-3.36-5.85-5.23-6.74-.43-.22-.24-.58.26-.48,2.71.36,5.83,2.88,6.67,5.9.38,1.34.26,2.83-.62,3.02-.74.17-1.08-.24-1.08-1.7Z"/><path d="M309.05,42.15c-1.08.07-1.22.26-1.46.74-1.08,2.59-5.8,15.11-6.45,16.62-.24.6-.91.58-1.15-.05-.53-1.49-2.69-7.15-4.44-11.61-1.32,3.41-3.93,10.31-4.49,11.66-.24.62-1.01.62-1.25-.05-.74-2.21-5.23-13.74-6.48-16.67-.14-.38-.65-.6-1.66-.65-.86-.02-.82-.74.07-.7,1.37.05,3.57.07,5.25,0,.79-.05.82.65.02.7-1.34.1-1.58.24-1.39.72l5.18,13.41c.91-2.59,3.05-8.16,3.93-10.43-.46-1.18-.86-2.16-1.15-2.83-.24-.62-.53-.79-1.75-.86-.86-.02-.82-.74.05-.7,1.37.05,3.43.07,5.06,0,.82-.05.86.6.05.67-1.42.14-1.56.22-1.46.5.91,2.16,3.98,10.12,5.33,13.67,1.1-3.07,4.03-10.84,5.04-13.46.19-.46-.1-.65-1.32-.72-.77-.02-.74-.72.05-.67,1.68.07,2.97.05,4.37,0,.86-.05.89.67.05.7Z"/><path d="M326.5,59.51c-3.21-.05-9.93-.05-13.31.02-.86.05-.89-.7-.07-.72,1.46-.1,1.75-.29,1.77-1.01.05-3.17.07-12.11.02-14.82,0-.43-.19-.67-1.68-.77-.84-.07-.79-.77.07-.72,3.26.12,10.19.07,12.69-.02.74-.05.98.31.55.74-.24.24-.14,1.68-.14,2.13,0,.5-.84.58-1.1.36s-.31-1.13-.46-1.82c-.05-.29-.26-.41-.55-.41-1.92-.02-5.35,0-6.84.05-.48,0-.58.12-.58.55-.02.84-.02,3.53-.02,6.38,1.82.26,4.8.1,5.4.1.38-.02.65-.17.67-.48.07-.5.05-.98.41-1.15.19-.1.53-.12.74-.1.43.07.46.43.38,1.06-.05.62-.1,1.73-.05,2.11.12,1.3,0,1.9-.67,1.9-.36,0-.53-.05-.62-.41-.1-.34-.14-.82-.22-1.39-.05-.46-.24-.55-.55-.58-1.1-.02-3.91.02-4.77.05h-.72c.02,3.21.05,6.43.07,7.27.02.65.07.72.38.72,1.75.05,5.92.07,7.15.02.62-.05.79-.19.89-.77.1-.46.17-1.22.26-1.85.02-.22.19-.34.41-.34.5,0,.96.31.91.74-.14,1.1-.02,1.8.26,2.18.5.72.19.98-.7.96Z"/><path d="M340.72,59.54c-.79.05-4.72-.12-7.99,0-.89.05-.89-.7-.05-.72,1.34-.07,1.56-.26,1.56-.72v-15.21c0-.38-.38-.58-1.46-.67-.84-.07-.79-.77.07-.72,2.01.07,5.54.1,6.64,0,3.72-.34,6.4,1.37,6.4,3.98s-2.16,3.91-2.71,4.15c2.5.82,3.86,2.37,4.03,4.29.24,3.19-2.11,5.35-6.5,5.61ZM345.14,54.02c-.19-2.09-1.29-3.45-3.07-3.86-.5-.1-1.29.29-2.01.34-1.58.12-2.4-.6-1.63-1.03.65-.31,2.93.14,3.43-.14,1.34-.72,2.18-2.23,2.04-3.74-.19-2.23-1.9-3.43-4.49-3.14-.41.05-1.99.12-2.76.14-.31.02-.48.12-.5.74-.07,2.09,0,12.93.05,14.61.02.58.22.7,1.2.74.55.02,2.62.02,3.26-.02,2.66-.22,4.7-2.3,4.49-4.63Z"/><path d="M370.52,47.02c-1.13-.31-2.42-.38-4.15-.22-.05.94-.1,1.87-.07,2.66.05,2.88.22,5.66.29,7.34.1,1.97-.62,3.38-2.01,3.48-1.25.1-.19-1.13-2.9-2.42-.31-.12-.17-.58.24-.46.82.26,1.87.53,2.57.6.43.05.58-.58.55-1.42-.1-1.99-.07-5.25-.14-8.32-.02-.46-.02-.91-.02-1.32l-1.44.22c-.29.05-.6.1-.94.17.43.22.82.94.53,1.61-1.03,2.45-4.89,7.41-9.86,9.93-.41.19-.74-.19-.43-.38,4.82-4.01,7.82-7.87,9.04-10.82.02-.07.07-.14.12-.22-3.12.7-7.48,1.85-9-.43-.22-.34,0-.58.46-.43,2.54.79,6.93-.19,10.12-.67l1.42-.22c0-1.87-.12-3.05-1.54-3.93-.36-.22-.14-.53.34-.48,2.49.22,2.85,1.49,2.78,3,0,.36-.02.74-.05,1.15,1.66-.24,3-.34,4.2.05,1.18.41,1.08,1.85-.1,1.54Z"/><path d="M378.37,43.83c-.43-.14-.26-.67.17-.6,2.66.41,4.77,1.46,5.92,2.66.96,1.03.96,2.42.24,2.76-1.37.65-.77-2.71-6.33-4.82ZM378.71,56.51c0-.46.5-.6.74-.22.91,1.54,1.82,1.56,4.32.14,2.66-1.54,7.1-5.13,11.27-9.88.38-.48.86-.07.55.38-2.81,4.68-7.32,8.88-11.35,11.25-1.42.86-2.25,1.27-3.6,1.06-1.22-.22-1.94-1.08-1.94-2.73Z"/><path d="M403.4,43.49c-.31-.26-.07-.58.36-.5,1.99.34,2.61,1.22,2.69,2.9.07,1.3-.17,4.41-.12,7.96.02,1.56-1.85,1.94-1.82.48.19-7.44.7-9.23-1.1-10.84ZM408.08,60.47c5.37-3.21,6.09-6.43,6.04-10.82-.02-2.06.07-3.67,0-4.73-.1-1.13-.79-1.77-1.82-2.18-.38-.17-.36-.36.1-.62,1.61-1.13,3.55.98,3.65,2.52.07,1.22-.07,3.05-.05,4.99.05,4.68-.89,9.14-7.6,11.42-.43.14-.74-.31-.31-.58Z"/><path d="M424.42,50.57c-.17-.22-.05-.36.41-.34,2.33.1,5.8.05,9.5-.12,2.69-.12,5.59-.34,7.41-.19,2.42.17,2.64,2.13,1.25,1.92-1.61-.29-4.63-.36-8.66-.14-2.28.12-5.52.43-7.29.36-1.1-.05-2.11-.82-2.61-1.49Z"/></g></svg>